<?xml version="1.0" ?><svg id="Icons" viewBox="0 0 24 24" xmlns="http://www.w3.org/2000/svg"><defs><style>.cls-1{fill:#232323;}</style></defs><path class="cls-1" d="M19,0H5A5.006,5.006,0,0,0,0,5V19a5.006,5.006,0,0,0,5,5H19a5.006,5.006,0,0,0,5-5V5A5.006,5.006,0,0,0,19,0Zm3,19a3,3,0,0,1-3,3H5a3,3,0,0,1-3-3V5A3,3,0,0,1,5,2H19a3,3,0,0,1,3,3Z"/><path class="cls-1" d="M19,7H5A1,1,0,0,0,5,9H19a1,1,0,0,0,0-2Z"/><circle class="cls-1" cx="5" cy="5" r="1"/><circle class="cls-1" cx="9" cy="5" r="1"/><circle class="cls-1" cx="19" cy="5" r="1"/></svg>